# xmcd
#
# Track frame offsets:
#	150
#	14278
#	31691
#	47605
#	61665
#	74575
#	90983
#	103677
#	115885
#	133392
#	148280
#	163254
#	175929
#	187758
#	203767
#	221417
#	231207
#	244824
#
# Disc length: 3448 seconds
#
# Revision: 0
# Processed by: cddbd v1.5.2PL0 Copyright (c) Steve Scherf et al.
# Submitted via: dBpowerAMP V4.0
#
DISCID=fc0d7612
DTITLE=renan e rafael  - pegando fogo
DYEAR=2009
DGENRE=Country
TTITLE0=renan e rafael - POR VC
TTITLE1=renan e rafael - CACHAÇA COM LIMAO
TTITLE2=renan e rafael -  CAÇA E CAÇADOR
TTITLE3=renan e rafael - QUEM E 
TTITLE4=renan e rafael - MAIS UMA NOITE
TTITLE5=renan e rafael -NAO VOU ENTREGAR
TTITLE6=renan e rafael - QUATRO TIPOS DE MULHER
TTITLE7=renan e rafael - DONA DO MEU CORAÇÃO
TTITLE8=renan e rafael - DESEJO DE AMAR
TTITLE9=renan e rafael - SE PONHA EM MEU LUGAR
TTITLE10=renan e rafael - VC E MEU SHOW
TTITLE11=renan e rafael - VEM ME VER
TTITLE12=renan e rafael - TOPO TUDO
TTITLE13=renan e rafael - CIUMENTA DE MAIS
TTITLE14=renan e rafael - SONHEI COM VC
TTITLE15=renan e rafael - VIOLEIRO DOS BONS
TTITLE16=renan e rafael - SO FAZENDO AMOR
TTITLE17=renan e rafael - UAI ...UAI..
EXTD=pegando fogo
EXTT0=
EXTT1=
EXTT2=
EXTT3=
EXTT4=
EXTT5=
EXTT6=
EXTT7=
EXTT8=
EXTT9=
EXTT10=
EXTT11=
EXTT12=
EXTT13=
EXTT14=
EXTT15=
EXTT16=
EXTT17=
PLAYORDER=
